<svg width="24" height="24" viewBox="0 0 24 24" fill="none" xmlns="http://www.w3.org/2000/svg">
<g id="Arrow">
<path id="Vector" d="M4.00391 18.2224L5.78168 20.0002L16.4483 9.33351L18.2261 11.1113L19.7918 9.54565C19.9089 9.42849 19.9089 9.23854 19.7918 9.12138L18.4383 7.76787C18.3211 7.65071 18.3211 7.46076 18.4383 7.34361L19.7918 5.99009C19.9089 5.87293 19.9089 5.68299 19.7918 5.56583L18.4383 4.21231C18.3211 4.09516 18.1311 4.09516 18.014 4.21232L16.6605 5.56583C16.5433 5.68299 16.3534 5.68299 16.2362 5.56583L14.8827 4.21231C14.7655 4.09516 14.5756 4.09516 14.4584 4.21232L12.8928 5.77796L14.6706 7.55574L4.00391 18.2224ZM9.33724 5.77796L10.9029 4.21231C11.02 4.09516 11.21 4.09516 11.3271 4.21232L12.8928 5.77796L11.3271 7.34361C11.21 7.46076 11.02 7.46076 10.9029 7.34361L9.33724 5.77796ZM9.33724 5.77796L7.77159 7.34361C7.65443 7.46076 7.46449 7.46076 7.34733 7.34361L5.99382 5.99009C5.87666 5.87293 5.87666 5.68299 5.99382 5.56583L7.34733 4.21231C7.46449 4.09516 7.65444 4.09516 7.77159 4.21232L9.33724 5.77796ZM18.2261 14.6668L19.7918 13.1012C19.9089 12.984 19.9089 12.7941 19.7918 12.6769L18.2261 11.1113L16.6605 12.6769C16.5433 12.7941 16.5433 12.984 16.6605 13.1012L18.2261 14.6668ZM18.2261 14.6668L16.6605 16.2325C16.5433 16.3496 16.5433 16.5396 16.6605 16.6568L18.014 18.0103C18.1311 18.1274 18.3211 18.1274 18.4383 18.0103L19.7918 16.6568C19.9089 16.5396 19.9089 16.3496 19.7918 16.2325L18.2261 14.6668Z" fill="#FFDE9F"/>
</g>
</svg>
